{
    "asset" : {
        "generator" : "Khronos glTF Blender I/O v3.3.32",
        "version" : "2.0"
    },
    "scene" : 0,
    "scenes" : [
        {
            "name" : "Scene",
            "nodes" : [
                0,
                1
            ]
        }
    ],
    "nodes" : [
        {
            "mesh" : 0,
            "name" : "Object_6",
            "rotation" : [
                -0.7071068286895752,
                0,
                0,
                0.7071067094802856
            ],
            "translation" : [
                0,
                4.225821495056152,
                0
            ]
        },
        {
            "mesh" : 1,
            "name" : "Object_11",
            "rotation" : [
                -0.7071068286895752,
                0,
                0,
                0.7071067094802856
            ],
            "translation" : [
                0,
                4.225821495056152,
                0
            ]
        }
    ],
    "materials" : [
        {
            "doubleSided" : true,
            "name" : "defaultMat",
            "pbrMetallicRoughness" : {
                "baseColorFactor" : [
                    0.800000011920929,
                    0.800000011920929,
                    0.800000011920929,
                    1
                ],
                "metallicFactor" : 0,
                "roughnessFactor" : 0.992209792137146
            }
        }
    ],
    "meshes" : [
        {
            "name" : "Object_4",
            "primitives" : [
                {
                    "attributes" : {
                        "POSITION" : 0,
                        "NORMAL" : 1,
                        "TEXCOORD_0" : 2,
                        "COLOR_0" : 3
                    },
                    "indices" : 4,
                    "material" : 0
                }
            ]
        },
        {
            "name" : "Object_9",
            "primitives" : [
                {
                    "attributes" : {
                        "POSITION" : 5,
                        "NORMAL" : 6,
                        "TEXCOORD_0" : 7,
                        "COLOR_0" : 8
                    },
                    "indices" : 9,
                    "material" : 0
                }
            ]
        }
    ],
    "accessors" : [
        {
            "bufferView" : 0,
            "componentType" : 5126,
            "count" : 8550,
            "max" : [
                1.6338549852371216,
                2.1867754459381104,
                -3.46633243560791
            ],
            "min" : [
                -1.6338549852371216,
                -1.0789846181869507,
                -4.22667121887207
            ],
            "type" : "VEC3"
        },
        {
            "bufferView" : 1,
            "componentType" : 5126,
            "count" : 8550,
            "type" : "VEC3"
        },
        {
            "bufferView" : 2,
            "componentType" : 5126,
            "count" : 8550,
            "type" : "VEC2"
        },
        {
            "bufferView" : 3,
            "componentType" : 5123,
            "count" : 8550,
            "normalized" : true,
            "type" : "VEC4"
        },
        {
            "bufferView" : 4,
            "componentType" : 5123,
            "count" : 32388,
            "type" : "SCALAR"
        },
        {
            "bufferView" : 5,
            "componentType" : 5126,
            "count" : 11948,
            "max" : [
                1.8056789636611938,
                2.3226468563079834,
                -2.9973433017730713
            ],
            "min" : [
                -1.8056789636611938,
                -1.2894262075424194,
                -3.579164505004883
            ],
            "type" : "VEC3"
        },
        {
            "bufferView" : 6,
            "componentType" : 5126,
            "count" : 11948,
            "type" : "VEC3"
        },
        {
            "bufferView" : 7,
            "componentType" : 5126,
            "count" : 11948,
            "type" : "VEC2"
        },
        {
            "bufferView" : 8,
            "componentType" : 5123,
            "count" : 11948,
            "normalized" : true,
            "type" : "VEC4"
        },
        {
            "bufferView" : 9,
            "componentType" : 5123,
            "count" : 36492,
            "type" : "SCALAR"
        }
    ],
    "bufferViews" : [
        {
            "buffer" : 0,
            "byteLength" : 102600,
            "byteOffset" : 0,
            "target" : 34962
        },
        {
            "buffer" : 0,
            "byteLength" : 102600,
            "byteOffset" : 102600,
            "target" : 34962
        },
        {
            "buffer" : 0,
            "byteLength" : 68400,
            "byteOffset" : 205200,
            "target" : 34962
        },
        {
            "buffer" : 0,
            "byteLength" : 68400,
            "byteOffset" : 273600,
            "target" : 34962
        },
        {
            "buffer" : 0,
            "byteLength" : 64776,
            "byteOffset" : 342000,
            "target" : 34963
        },
        {
            "buffer" : 0,
            "byteLength" : 143376,
            "byteOffset" : 406776,
            "target" : 34962
        },
        {
            "buffer" : 0,
            "byteLength" : 143376,
            "byteOffset" : 550152,
            "target" : 34962
        },
        {
            "buffer" : 0,
            "byteLength" : 95584,
            "byteOffset" : 693528,
            "target" : 34962
        },
        {
            "buffer" : 0,
            "byteLength" : 95584,
            "byteOffset" : 789112,
            "target" : 34962
        },
        {
            "buffer" : 0,
            "byteLength" : 72984,
            "byteOffset" : 884696,
            "target" : 34963
        }
    ],
    "buffers" : [
        {
            "byteLength" : 957680,
            "uri" : "data:application/octet-stream;base64,"
        }
    ]
}
