{
  "accessors": [
    {
      "bufferView": 2,
      "componentType": 5126,
      "count": 3308,
      "max": [
        0.1075592041015625,
        0.2687530517578125,
        0.05287933349609375
      ],
      "min": [
        -0.1075592041015625,
        -0.1157684326171875,
        -0.1927642822265625
      ],
      "type": "VEC3"
    },
    {
      "bufferView": 2,
      "byteOffset": 39696,
      "componentType": 5126,
      "count": 3308,
      "max": [
        1.0,
        0.9999997019767761,
        1.0
      ],
      "min": [
        -1.0,
        -1.0,
        -1.0
      ],
      "type": "VEC3"
    },
    {
      "bufferView": 3,
      "componentType": 5126,
      "count": 3308,
      "max": [
        1.0,
        0.9999986886978149,
        0.9989998936653137,
        1.0
      ],
      "min": [
        -0.9999997019767761,
        -0.9996778964996338,
        -0.9989839196205139,
        -1.0
      ],
      "type": "VEC4"
    },
    {
      "bufferView": 1,
      "componentType": 5126,
      "count": 3308,
      "max": [
        0.9869046211242676,
        0.9956567883491516
      ],
      "min": [
        0.0066672880202531815,
        0.006303722038865089
      ],
      "type": "VEC2"
    },
    {
      "bufferView": 0,
      "componentType": 5125,
      "count": 16098,
      "type": "SCALAR"
    },
    {
      "bufferView": 2,
      "byteOffset": 79392,
      "componentType": 5126,
      "count": 209,
      "max": [
        0.06867218017578125,
        0.11066436767578125,
        0.0355987548828125
      ],
      "min": [
        -0.06867218017578125,
        -0.00312042236328125,
        0.02301025390625
      ],
      "type": "VEC3"
    },
    {
      "bufferView": 2,
      "byteOffset": 81900,
      "componentType": 5126,
      "count": 209,
      "max": [
        0.9088842868804932,
        0.911278247833252,
        1.0
      ],
      "min": [
        -0.9088841080665588,
        -0.9112918376922607,
        0.40010178089141846
      ],
      "type": "VEC3"
    },
    {
      "bufferView": 1,
      "byteOffset": 26464,
      "componentType": 5126,
      "count": 209,
      "max": [
        0.9797580242156982,
        0.8709273338317871
      ],
      "min": [
        0.06180956959724426,
        0.0933433473110199
      ],
      "type": "VEC2"
    },
    {
      "bufferView": 0,
      "byteOffset": 64392,
      "componentType": 5125,
      "count": 1152,
      "type": "SCALAR"
    }
  ],
  "asset": {
    "extras": {
      "author": "B Domeier (https://sketchfab.com/acidfawn)",
      "license": "CC-BY-4.0 (http://creativecommons.org/licenses/by/4.0/)",
      "source": "https://sketchfab.com/3d-models/the-little-tv-that-couldnt-6813826f9126436fa1248d7eeb792f66",
      "title": "The Little TV That Couldn't"
    },
    "generator": "Sketchfab-12.67.0",
    "version": "2.0"
  },
  "bufferViews": [
    {
      "buffer": 0,
      "byteLength": 69000,
      "name": "floatBufferViews",
      "target": 34963
    },
    {
      "buffer": 0,
      "byteLength": 28136,
      "byteOffset": 69000,
      "byteStride": 8,
      "name": "floatBufferViews",
      "target": 34962
    },
    {
      "buffer": 0,
      "byteLength": 84408,
      "byteOffset": 97136,
      "byteStride": 12,
      "name": "floatBufferViews",
      "target": 34962
    },
    {
      "buffer": 0,
      "byteLength": 52928,
      "byteOffset": 181544,
      "byteStride": 16,
      "name": "floatBufferViews",
      "target": 34962
    }
  ],
  "buffers": [
    {
      "byteLength": 234472,
      "uri": "scene.bin"
    }
  ],
  "extensionsRequired": [
    "KHR_materials_pbrSpecularGlossiness"
  ],
  "extensionsUsed": [
    "KHR_materials_pbrSpecularGlossiness"
  ],
  "images": [
    {
      "uri": "textures/bodyMaterial_diffuse.png"
    },
    {
      "uri": "textures/bodyMaterial_specularGlossiness.png"
    },
    {
      "uri": "textures/bodyMaterial_normal.png"
    },
    {
      "uri": "textures/bodyMaterial_occlusion.png"
    },
    {
      "uri": "textures/screenMaterial_diffuse.png"
    }
  ],
  "materials": [
    {
      "doubleSided": true,
      "extensions": {
        "KHR_materials_pbrSpecularGlossiness": {
          "diffuseFactor": [
            1.0,
            1.0,
            1.0,
            1.0
          ],
          "diffuseTexture": {
            "index": 0
          },
          "glossinessFactor": 1.0,
          "specularFactor": [
            1.0,
            1.0,
            1.0
          ],
          "specularGlossinessTexture": {
            "index": 1
          }
        }
      },
      "name": "bodyMaterial",
      "normalTexture": {
        "index": 2
      },
      "occlusionTexture": {
        "index": 3
      }
    },
    {
      "doubleSided": true,
      "emissiveFactor": [
        0.565929878,
        0.565929878,
        0.565929878
      ],
      "emissiveTexture": {
        "index": 4
      },
      "extensions": {
        "KHR_materials_pbrSpecularGlossiness": {
          "diffuseFactor": [
            1.0,
            1.0,
            1.0,
            1.0
          ],
          "diffuseTexture": {
            "index": 4
          },
          "glossinessFactor": 0.5322027439,
          "specularFactor": [
            0.0,
            0.0,
            0.0
          ]
        }
      },
      "name": "screenMaterial"
    }
  ],
  "meshes": [
    {
      "name": "tv_LP_bodyMaterial_0",
      "primitives": [
        {
          "attributes": {
            "NORMAL": 1,
            "POSITION": 0,
            "TANGENT": 2,
            "TEXCOORD_0": 3
          },
          "indices": 4,
          "material": 0,
          "mode": 4
        }
      ]
    },
    {
      "name": "Screen_screenMaterial_0",
      "primitives": [
        {
          "attributes": {
            "NORMAL": 6,
            "POSITION": 5,
            "TEXCOORD_0": 7
          },
          "indices": 8,
          "material": 1,
          "mode": 4
        }
      ]
    }
  ],
  "nodes": [
    {
      "children": [
        1
      ],
      "matrix": [
        1.0,
        0.0,
        0.0,
        0.0,
        0.0,
        2.220446049250313e-16,
        -1.0,
        0.0,
        0.0,
        1.0,
        2.220446049250313e-16,
        0.0,
        0.0,
        0.0,
        0.0,
        1.0
      ],
      "name": "Sketchfab_model"
    },
    {
      "children": [
        2
      ],
      "matrix": [
        1.0,
        0.0,
        0.0,
        0.0,
        0.0,
        0.0,
        1.0,
        0.0,
        0.0,
        -1.0,
        0.0,
        0.0,
        0.0,
        0.0,
        0.0,
        1.0
      ],
      "name": "3ccbd5d44e384621bb9ec9c03a178759.fbx"
    },
    {
      "children": [
        3,
        5
      ],
      "name": "RootNode"
    },
    {
      "children": [
        4
      ],
      "name": "tv_LP"
    },
    {
      "mesh": 0,
      "name": "tv_LP_bodyMaterial_0"
    },
    {
      "children": [
        6
      ],
      "name": "Screen"
    },
    {
      "mesh": 1,
      "name": "Screen_screenMaterial_0"
    }
  ],
  "samplers": [
    {
      "magFilter": 9729,
      "minFilter": 9987,
      "wrapS": 10497,
      "wrapT": 10497
    }
  ],
  "scene": 0,
  "scenes": [
    {
      "name": "Sketchfab_Scene",
      "nodes": [
        0
      ]
    }
  ],
  "textures": [
    {
      "sampler": 0,
      "source": 0
    },
    {
      "sampler": 0,
      "source": 1
    },
    {
      "sampler": 0,
      "source": 2
    },
    {
      "sampler": 0,
      "source": 3
    },
    {
      "sampler": 0,
      "source": 4
    }
  ]
}
