{
    "asset" : {
        "generator" : "Khronos glTF Blender I/O v3.3.32",
        "version" : "2.0"
    },
    "scene" : 0,
    "scenes" : [
        {
            "name" : "Scene",
            "nodes" : [
                6
            ]
        }
    ],
    "nodes" : [
        {
            "mesh" : 0,
            "name" : "Screen_screenMaterial_0",
            "scale" : [
                8.824097633361816,
                8.824097633361816,
                8.824097633361816
            ],
            "translation" : [
                0,
                0.26412785053253174,
                0.13330651819705963
            ]
        },
        {
            "children" : [
                0
            ],
            "name" : "Screen"
        },
        {
            "mesh" : 1,
            "name" : "tv_LP_bodyMaterial_0",
            "scale" : [
                8.824097633361816,
                8.824097633361816,
                8.824097633361816
            ],
            "translation" : [
                0,
                -0.21035629510879517,
                -0.10616777092218399
            ]
        },
        {
            "children" : [
                2
            ],
            "name" : "tv_LP"
        },
        {
            "children" : [
                1,
                3
            ],
            "name" : "RootNode"
        },
        {
            "children" : [
                4
            ],
            "name" : "3ccbd5d44e384621bb9ec9c03a178759.fbx",
            "rotation" : [
                0.7071068286895752,
                0,
                0,
                0.7071067094802856
            ]
        },
        {
            "children" : [
                5
            ],
            "name" : "Sketchfab_model",
            "rotation" : [
                -0.7071068286895752,
                0,
                0,
                0.7071067094802856
            ],
            "translation" : [
                0,
                1.168928861618042,
                0
            ]
        }
    ],
    "materials" : [
        {
            "doubleSided" : true,
            "emissiveFactor" : [
                0.5659298896789551,
                0.5659298896789551,
                0.5659298896789551
            ],
            "emissiveTexture" : {
                "index" : 0
            },
            "name" : "screenMaterial",
            "pbrMetallicRoughness" : {
                "baseColorFactor" : [
                    0,
                    0,
                    0,
                    1
                ]
            }
        },
        {
            "doubleSided" : true,
            "name" : "bodyMaterial",
            "occlusionTexture" : {
                "index" : 1
            },
            "pbrMetallicRoughness" : {}
        }
    ],
    "meshes" : [
        {
            "name" : "Screen_screenMaterial_0",
            "primitives" : [
                {
                    "attributes" : {
                        "POSITION" : 0,
                        "NORMAL" : 1,
                        "TEXCOORD_0" : 2
                    },
                    "indices" : 3,
                    "material" : 0
                }
            ]
        },
        {
            "name" : "tv_LP_bodyMaterial_0",
            "primitives" : [
                {
                    "attributes" : {
                        "POSITION" : 4,
                        "NORMAL" : 5,
                        "TEXCOORD_0" : 6
                    },
                    "indices" : 7,
                    "material" : 1
                }
            ]
        }
    ],
    "textures" : [
        {
            "sampler" : 0,
            "source" : 0
        },
        {
            "sampler" : 0,
            "source" : 1
        }
    ],
    "images" : [
        {
            "bufferView" : 4,
            "mimeType" : "image/png",
            "name" : "screenMaterial_diffuse"
        },
        {
            "bufferView" : 9,
            "mimeType" : "image/png",
            "name" : "bodyMaterial_occlusion"
        }
    ],
    "accessors" : [
        {
            "bufferView" : 0,
            "componentType" : 5126,
            "count" : 209,
            "max" : [
                0.06867218017578125,
                0.05689295381307602,
                0.00846008025109768
            ],
            "min" : [
                -0.06867218017578125,
                -0.05689183622598648,
                -0.004128420725464821
            ],
            "type" : "VEC3"
        },
        {
            "bufferView" : 1,
            "componentType" : 5126,
            "count" : 209,
            "type" : "VEC3"
        },
        {
            "bufferView" : 2,
            "componentType" : 5126,
            "count" : 209,
            "type" : "VEC2"
        },
        {
            "bufferView" : 3,
            "componentType" : 5123,
            "count" : 1152,
            "type" : "SCALAR"
        },
        {
            "bufferView" : 5,
            "componentType" : 5126,
            "count" : 3858,
            "max" : [
                0.1075592041015625,
                0.2687530517578125,
                0.05287933349609375
            ],
            "min" : [
                -0.1075592041015625,
                -0.1157684326171875,
                -0.1927642822265625
            ],
            "type" : "VEC3"
        },
        {
            "bufferView" : 6,
            "componentType" : 5126,
            "count" : 3858,
            "type" : "VEC3"
        },
        {
            "bufferView" : 7,
            "componentType" : 5126,
            "count" : 3858,
            "type" : "VEC2"
        },
        {
            "bufferView" : 8,
            "componentType" : 5123,
            "count" : 16098,
            "type" : "SCALAR"
        }
    ],
    "bufferViews" : [
        {
            "buffer" : 0,
            "byteLength" : 2508,
            "byteOffset" : 0,
            "target" : 34962
        },
        {
            "buffer" : 0,
            "byteLength" : 2508,
            "byteOffset" : 2508,
            "target" : 34962
        },
        {
            "buffer" : 0,
            "byteLength" : 1672,
            "byteOffset" : 5016,
            "target" : 34962
        },
        {
            "buffer" : 0,
            "byteLength" : 2304,
            "byteOffset" : 6688,
            "target" : 34963
        },
        {
            "buffer" : 0,
            "byteLength" : 108477,
            "byteOffset" : 8992
        },
        {
            "buffer" : 0,
            "byteLength" : 46296,
            "byteOffset" : 117472,
            "target" : 34962
        },
        {
            "buffer" : 0,
            "byteLength" : 46296,
            "byteOffset" : 163768,
            "target" : 34962
        },
        {
            "buffer" : 0,
            "byteLength" : 30864,
            "byteOffset" : 210064,
            "target" : 34962
        },
        {
            "buffer" : 0,
            "byteLength" : 32196,
            "byteOffset" : 240928,
            "target" : 34963
        },
        {
            "buffer" : 0,
            "byteLength" : 813911,
            "byteOffset" : 273124
        }
    ],
    "samplers" : [
        {
            "magFilter" : 9729,
            "minFilter" : 9987
        }
    ],
    "buffers" : [
        {
            "byteLength" : 1087036,
            "uri" : "data:application/octet-stream;base64,"
        }
    ]
}
