{
  "accessors": [
    {
      "bufferView": 2,
      "componentType": 5126,
      "count": 294,
      "max": [
        5.583150386810303,
        20.497940063476563,
        5.583152770996094
      ],
      "min": [
        -5.58315372467041,
        -20.497940063476563,
        -5.583153247833252
      ],
      "type": "VEC3"
    },
    {
      "bufferView": 2,
      "byteOffset": 3528,
      "componentType": 5126,
      "count": 294,
      "max": [
        0.9999986886978149,
        0.9599691033363342,
        0.9999986886978149
      ],
      "min": [
        -1.0,
        -0.9817837476730347,
        -0.9999986886978149
      ],
      "type": "VEC3"
    },
    {
      "bufferView": 1,
      "componentType": 5126,
      "count": 294,
      "max": [
        0.30736860632896423,
        0.9789350032806396
      ],
      "min": [
        0.021341923624277115,
        0.40228694677352905
      ],
      "type": "VEC2"
    },
    {
      "bufferView": 0,
      "componentType": 5125,
      "count": 924,
      "type": "SCALAR"
    },
    {
      "bufferView": 2,
      "byteOffset": 7056,
      "componentType": 5126,
      "count": 3740,
      "max": [
        35.543983459472656,
        49.79545211791992,
        9.447163581848145
      ],
      "min": [
        -44.72291564941406,
        -49.79545211791992,
        -9.944138526916504
      ],
      "type": "VEC3"
    },
    {
      "bufferView": 2,
      "byteOffset": 51936,
      "componentType": 5126,
      "count": 3740,
      "max": [
        1.0,
        0.9997683167457581,
        1.0
      ],
      "min": [
        -1.0,
        -0.9997683763504028,
        -1.0
      ],
      "type": "VEC3"
    },
    {
      "bufferView": 1,
      "byteOffset": 2352,
      "componentType": 5126,
      "count": 3740,
      "max": [
        0.9739422798156738,
        0.988136887550354
      ],
      "min": [
        0.429764986038208,
        0.027525823563337326
      ],
      "type": "VEC2"
    },
    {
      "bufferView": 0,
      "byteOffset": 3696,
      "componentType": 5125,
      "count": 13578,
      "type": "SCALAR"
    }
  ],
  "asset": {
    "extras": {
      "author": "Vanillain (https://sketchfab.com/vanillain)",
      "license": "CC-BY-NC-4.0 (http://creativecommons.org/licenses/by-nc/4.0/)",
      "source": "https://sketchfab.com/3d-models/cartoon-notebook-pencil-bd3831c95ab04e719f6ba740289a6ed1",
      "title": "Cartoon Notebook & Pencil"
    },
    "generator": "Sketchfab-12.68.0",
    "version": "2.0"
  },
  "bufferViews": [
    {
      "buffer": 0,
      "byteLength": 58008,
      "name": "floatBufferViews",
      "target": 34963
    },
    {
      "buffer": 0,
      "byteLength": 32272,
      "byteOffset": 58008,
      "byteStride": 8,
      "name": "floatBufferViews",
      "target": 34962
    },
    {
      "buffer": 0,
      "byteLength": 96816,
      "byteOffset": 90280,
      "byteStride": 12,
      "name": "floatBufferViews",
      "target": 34962
    }
  ],
  "buffers": [
    {
      "byteLength": 187096,
      "uri": "scene.bin"
    }
  ],
  "extensionsUsed": [
    "KHR_materials_unlit"
  ],
  "images": [
    {
      "uri": "textures/Rectangle004__0_baseColor.png"
    }
  ],
  "materials": [
    {
      "doubleSided": true,
      "extensions": {
        "KHR_materials_unlit": {}
      },
      "name": "Rectangle004__0",
      "pbrMetallicRoughness": {
        "baseColorTexture": {
          "index": 0
        },
        "metallicFactor": 0.0
      }
    },
    {
      "doubleSided": true,
      "extensions": {
        "KHR_materials_unlit": {}
      },
      "name": "01_-_Default",
      "pbrMetallicRoughness": {
        "baseColorTexture": {
          "index": 0
        },
        "metallicFactor": 0.0
      }
    }
  ],
  "meshes": [
    {
      "name": "Pencil_01 - Default_0",
      "primitives": [
        {
          "attributes": {
            "NORMAL": 1,
            "POSITION": 0,
            "TEXCOORD_0": 2
          },
          "indices": 3,
          "material": 1,
          "mode": 4
        }
      ]
    },
    {
      "name": "Rectangle004__0",
      "primitives": [
        {
          "attributes": {
            "NORMAL": 5,
            "POSITION": 4,
            "TEXCOORD_0": 6
          },
          "indices": 7,
          "material": 0,
          "mode": 4
        }
      ]
    }
  ],
  "nodes": [
    {
      "children": [
        1
      ],
      "matrix": [
        1.0,
        0.0,
        0.0,
        0.0,
        0.0,
        2.220446049250313e-16,
        -1.0,
        0.0,
        0.0,
        1.0,
        2.220446049250313e-16,
        0.0,
        0.0,
        0.0,
        0.0,
        1.0
      ],
      "name": "Sketchfab_model"
    },
    {
      "children": [
        2
      ],
      "matrix": [
        1.0,
        0.0,
        0.0,
        0.0,
        0.0,
        0.0,
        1.0,
        0.0,
        0.0,
        -1.0,
        0.0,
        0.0,
        0.0,
        0.0,
        0.0,
        1.0
      ],
      "name": "1c36d71a15cf4ca2a0dbf5df4a9e53b5.fbx"
    },
    {
      "children": [
        3,
        5
      ],
      "name": "RootNode"
    },
    {
      "children": [
        4
      ],
      "matrix": [
        -0.1711924988234207,
        -0.6774588298836557,
        -0.7944888556484258,
        0.0,
        -0.06475773119433394,
        -0.7966579890082843,
        0.6932621180982869,
        0.0,
        -1.0420985770009668,
        0.16079633687441,
        0.08743553883070479,
        0.0,
        -2.3640432357788086,
        21.71181869506836,
        -37.71113967895508,
        1.0
      ],
      "name": "Pencil"
    },
    {
      "mesh": 0,
      "name": "Pencil_01 - Default_0"
    },
    {
      "children": [
        6
      ],
      "matrix": [
        0.7660444576809406,
        5.551115123125783e-17,
        -0.6427875923322677,
        0.0,
        -0.6427875923322677,
        2.220446049250313e-16,
        -0.7660444576809406,
        0.0,
        5.551115123125783e-17,
        1.0,
        2.220446049250313e-16,
        0.0,
        0.0,
        0.0,
        0.0,
        1.0
      ],
      "name": "Rectangle004"
    },
    {
      "mesh": 1,
      "name": "Rectangle004__0"
    }
  ],
  "samplers": [
    {
      "magFilter": 9729,
      "minFilter": 9987,
      "wrapS": 10497,
      "wrapT": 10497
    }
  ],
  "scene": 0,
  "scenes": [
    {
      "name": "Sketchfab_Scene",
      "nodes": [
        0
      ]
    }
  ],
  "textures": [
    {
      "sampler": 0,
      "source": 0
    }
  ]
}
