{
    "asset" : {
        "generator" : "Khronos glTF Blender I/O v3.3.32",
        "version" : "2.0"
    },
    "extensionsUsed" : [
        "KHR_materials_unlit"
    ],
    "scene" : 0,
    "scenes" : [
        {
            "name" : "Scene",
            "nodes" : [
                8
            ]
        }
    ],
    "nodes" : [
        {
            "mesh" : 0,
            "name" : "vending_crystal_blinn3_0.001",
            "translation" : [
                2.1907598972320557,
                6.1285200119018555,
                0.027352213859558105
            ]
        },
        {
            "mesh" : 1,
            "name" : "vending_crystal_lambert32_0.001",
            "translation" : [
                0.9473139643669128,
                4.2641777992248535,
                -0.4442110061645508
            ]
        },
        {
            "children" : [
                0,
                1
            ],
            "name" : "vending_crystal.002"
        },
        {
            "children" : [
                2
            ],
            "name" : "models.001"
        },
        {
            "children" : [
                3
            ],
            "name" : "vending.003"
        },
        {
            "children" : [
                4
            ],
            "name" : "RootNode.001"
        },
        {
            "children" : [
                5
            ],
            "name" : "Object_2.001"
        },
        {
            "children" : [
                6
            ],
            "name" : "281bf42963b0438c9d712542d0977bcb.fbx.001",
            "rotation" : [
                0.7071068286895752,
                0,
                0,
                0.7071067094802856
            ]
        },
        {
            "children" : [
                7
            ],
            "name" : "Sketchfab_model.001",
            "rotation" : [
                -0.7071068286895752,
                0,
                0,
                0.7071067094802856
            ],
            "scale" : [
                4.3837151527404785,
                4.3837151527404785,
                4.3837151527404785
            ],
            "translation" : [
                0.7829698324203491,
                0,
                -0.07379436492919922
            ]
        }
    ],
    "materials" : [
        {
            "doubleSided" : true,
            "extensions" : {
                "KHR_materials_unlit" : {}
            },
            "name" : "blinn3.001",
            "pbrMetallicRoughness" : {
                "baseColorTexture" : {
                    "index" : 0,
                    "texCoord" : 0
                },
                "metallicFactor" : 0,
                "roughnessFactor" : 0.9
            }
        },
        {
            "doubleSided" : true,
            "extensions" : {
                "KHR_materials_unlit" : {}
            },
            "name" : "lambert32.001",
            "pbrMetallicRoughness" : {
                "baseColorTexture" : {
                    "index" : 1,
                    "texCoord" : 0
                },
                "metallicFactor" : 0,
                "roughnessFactor" : 0.9
            }
        }
    ],
    "meshes" : [
        {
            "name" : "vending_crystal_blinn3_0.001",
            "primitives" : [
                {
                    "attributes" : {
                        "POSITION" : 0,
                        "NORMAL" : 1,
                        "TEXCOORD_0" : 2
                    },
                    "indices" : 3,
                    "material" : 0
                }
            ]
        },
        {
            "name" : "vending_crystal_lambert32_0.001",
            "primitives" : [
                {
                    "attributes" : {
                        "POSITION" : 4,
                        "NORMAL" : 5,
                        "TEXCOORD_0" : 6
                    },
                    "indices" : 7,
                    "material" : 1
                }
            ]
        }
    ],
    "textures" : [
        {
            "sampler" : 0,
            "source" : 0
        },
        {
            "sampler" : 0,
            "source" : 1
        }
    ],
    "images" : [
        {
            "bufferView" : 4,
            "mimeType" : "image/jpeg",
            "name" : "blinn3_baseColor"
        },
        {
            "bufferView" : 9,
            "mimeType" : "image/jpeg",
            "name" : "lambert32_baseColor"
        }
    ],
    "accessors" : [
        {
            "bufferView" : 0,
            "componentType" : 5126,
            "count" : 4,
            "max" : [
                0,
                1.9674186706542969,
                1.8618693351745605
            ],
            "min" : [
                0,
                -1.9674186706542969,
                -1.8618693351745605
            ],
            "type" : "VEC3"
        },
        {
            "bufferView" : 1,
            "componentType" : 5126,
            "count" : 4,
            "type" : "VEC3"
        },
        {
            "bufferView" : 2,
            "componentType" : 5126,
            "count" : 4,
            "type" : "VEC2"
        },
        {
            "bufferView" : 3,
            "componentType" : 5123,
            "count" : 6,
            "type" : "SCALAR"
        },
        {
            "bufferView" : 5,
            "componentType" : 5126,
            "count" : 5325,
            "max" : [
                1.8615309000015259,
                4.2186665534973145,
                2.7280240058898926
            ],
            "min" : [
                -3.5141615867614746,
                -4.244393825531006,
                -1.839601993560791
            ],
            "type" : "VEC3"
        },
        {
            "bufferView" : 6,
            "componentType" : 5126,
            "count" : 5325,
            "type" : "VEC3"
        },
        {
            "bufferView" : 7,
            "componentType" : 5126,
            "count" : 5325,
            "type" : "VEC2"
        },
        {
            "bufferView" : 8,
            "componentType" : 5123,
            "count" : 16218,
            "type" : "SCALAR"
        }
    ],
    "bufferViews" : [
        {
            "buffer" : 0,
            "byteLength" : 48,
            "byteOffset" : 0,
            "target" : 34962
        },
        {
            "buffer" : 0,
            "byteLength" : 48,
            "byteOffset" : 48,
            "target" : 34962
        },
        {
            "buffer" : 0,
            "byteLength" : 32,
            "byteOffset" : 96,
            "target" : 34962
        },
        {
            "buffer" : 0,
            "byteLength" : 12,
            "byteOffset" : 128,
            "target" : 34963
        },
        {
            "buffer" : 0,
            "byteLength" : 372981,
            "byteOffset" : 140
        },
        {
            "buffer" : 0,
            "byteLength" : 63900,
            "byteOffset" : 373124,
            "target" : 34962
        },
        {
            "buffer" : 0,
            "byteLength" : 63900,
            "byteOffset" : 437024,
            "target" : 34962
        },
        {
            "buffer" : 0,
            "byteLength" : 42600,
            "byteOffset" : 500924,
            "target" : 34962
        },
        {
            "buffer" : 0,
            "byteLength" : 32436,
            "byteOffset" : 543524,
            "target" : 34963
        },
        {
            "buffer" : 0,
            "byteLength" : 2289547,
            "byteOffset" : 575960
        }
    ],
    "samplers" : [
        {
            "magFilter" : 9729,
            "minFilter" : 9987
        }
    ],
    "buffers" : [
        {
            "byteLength" : 2865508,
            "uri" : "data:application/octet-stream;base64,"
        }
    ]
}
