{
    "asset" : {
        "generator" : "Khronos glTF Blender I/O v3.3.32",
        "version" : "2.0"
    },
    "scene" : 0,
    "scenes" : [
        {
            "name" : "Scene",
            "nodes" : [
                0,
                1,
                2,
                3
            ]
        }
    ],
    "nodes" : [
        {
            "mesh" : 0,
            "name" : "Alley_Gray_0",
            "rotation" : [
                -0.6599003672599792,
                0.254030704498291,
                0.25403067469596863,
                0.6599002480506897
            ],
            "translation" : [
                -3.6154463291168213,
                0,
                0
            ]
        },
        {
            "mesh" : 1,
            "name" : "Alley_Gray_0.001",
            "rotation" : [
                -0.43300214409828186,
                0.5590251684188843,
                0.5590251684188843,
                0.43300220370292664
            ],
            "translation" : [
                -4.258024215698242,
                0,
                8.854825973510742
            ]
        },
        {
            "mesh" : 2,
            "name" : "Alley_Gray_0.002",
            "rotation" : [
                -0.3123582899570465,
                0.6343755125999451,
                0.6343755722045898,
                0.3123582899570465
            ],
            "translation" : [
                7.526091575622559,
                0,
                -0.31965482234954834
            ]
        },
        {
            "mesh" : 3,
            "name" : "Alley_Gray_0.003",
            "rotation" : [
                -0.14615198969841003,
                -0.6918378472328186,
                -0.6918378472328186,
                0.14615198969841003
            ],
            "translation" : [
                6.7340593338012695,
                0,
                11.147122383117676
            ]
        }
    ],
    "materials" : [
        {
            "doubleSided" : true,
            "name" : "Gray",
            "pbrMetallicRoughness" : {
                "baseColorFactor" : [
                    0.3864290118217468,
                    0.46207699179649353,
                    0.4735319912433624,
                    1
                ],
                "metallicFactor" : 0,
                "roughnessFactor" : 0.5
            }
        },
        {
            "doubleSided" : true,
            "name" : "Gray.003",
            "pbrMetallicRoughness" : {
                "baseColorFactor" : [
                    0.3864290118217468,
                    0.46207699179649353,
                    0.4735319912433624,
                    1
                ],
                "metallicFactor" : 0,
                "roughnessFactor" : 0.5
            }
        },
        {
            "doubleSided" : true,
            "name" : "Gray.004",
            "pbrMetallicRoughness" : {
                "baseColorFactor" : [
                    0.3864290118217468,
                    0.46207699179649353,
                    0.4735319912433624,
                    1
                ],
                "metallicFactor" : 0,
                "roughnessFactor" : 0.5
            }
        },
        {
            "doubleSided" : true,
            "name" : "Gray.005",
            "pbrMetallicRoughness" : {
                "baseColorFactor" : [
                    0.3864290118217468,
                    0.46207699179649353,
                    0.4735319912433624,
                    1
                ],
                "metallicFactor" : 0,
                "roughnessFactor" : 0.5
            }
        }
    ],
    "meshes" : [
        {
            "name" : "Alley_Gray_0",
            "primitives" : [
                {
                    "attributes" : {
                        "POSITION" : 0,
                        "NORMAL" : 1,
                        "TEXCOORD_0" : 2
                    },
                    "indices" : 3,
                    "material" : 0
                }
            ]
        },
        {
            "name" : "Alley_Gray_0.001",
            "primitives" : [
                {
                    "attributes" : {
                        "POSITION" : 4,
                        "NORMAL" : 5,
                        "TEXCOORD_0" : 6
                    },
                    "indices" : 3,
                    "material" : 1
                }
            ]
        },
        {
            "name" : "Alley_Gray_0.002",
            "primitives" : [
                {
                    "attributes" : {
                        "POSITION" : 7,
                        "NORMAL" : 8,
                        "TEXCOORD_0" : 9
                    },
                    "indices" : 3,
                    "material" : 2
                }
            ]
        },
        {
            "name" : "Alley_Gray_0.003",
            "primitives" : [
                {
                    "attributes" : {
                        "POSITION" : 10,
                        "NORMAL" : 11,
                        "TEXCOORD_0" : 12
                    },
                    "indices" : 3,
                    "material" : 3
                }
            ]
        }
    ],
    "accessors" : [
        {
            "bufferView" : 0,
            "componentType" : 5126,
            "count" : 15832,
            "max" : [
                1.7915674448013306,
                4.865633964538574,
                0.07364107668399811
            ],
            "min" : [
                -2.026275157928467,
                -4.643990993499756,
                -0.018069114536046982
            ],
            "type" : "VEC3"
        },
        {
            "bufferView" : 1,
            "componentType" : 5126,
            "count" : 15832,
            "type" : "VEC3"
        },
        {
            "bufferView" : 2,
            "componentType" : 5126,
            "count" : 15832,
            "type" : "VEC2"
        },
        {
            "bufferView" : 3,
            "componentType" : 5123,
            "count" : 19380,
            "type" : "SCALAR"
        },
        {
            "bufferView" : 4,
            "componentType" : 5126,
            "count" : 15832,
            "max" : [
                1.7915674448013306,
                4.865633964538574,
                0.07364107668399811
            ],
            "min" : [
                -2.026275157928467,
                -4.643990993499756,
                -0.018069114536046982
            ],
            "type" : "VEC3"
        },
        {
            "bufferView" : 5,
            "componentType" : 5126,
            "count" : 15832,
            "type" : "VEC3"
        },
        {
            "bufferView" : 6,
            "componentType" : 5126,
            "count" : 15832,
            "type" : "VEC2"
        },
        {
            "bufferView" : 7,
            "componentType" : 5126,
            "count" : 15832,
            "max" : [
                1.7915674448013306,
                4.865633964538574,
                0.07364107668399811
            ],
            "min" : [
                -2.026275157928467,
                -4.643990993499756,
                -0.018069114536046982
            ],
            "type" : "VEC3"
        },
        {
            "bufferView" : 8,
            "componentType" : 5126,
            "count" : 15832,
            "type" : "VEC3"
        },
        {
            "bufferView" : 9,
            "componentType" : 5126,
            "count" : 15832,
            "type" : "VEC2"
        },
        {
            "bufferView" : 10,
            "componentType" : 5126,
            "count" : 15832,
            "max" : [
                1.7915674448013306,
                4.865633964538574,
                0.07364107668399811
            ],
            "min" : [
                -2.026275157928467,
                -4.643990993499756,
                -0.018069114536046982
            ],
            "type" : "VEC3"
        },
        {
            "bufferView" : 11,
            "componentType" : 5126,
            "count" : 15832,
            "type" : "VEC3"
        },
        {
            "bufferView" : 12,
            "componentType" : 5126,
            "count" : 15832,
            "type" : "VEC2"
        }
    ],
    "bufferViews" : [
        {
            "buffer" : 0,
            "byteLength" : 189984,
            "byteOffset" : 0,
            "target" : 34962
        },
        {
            "buffer" : 0,
            "byteLength" : 189984,
            "byteOffset" : 189984,
            "target" : 34962
        },
        {
            "buffer" : 0,
            "byteLength" : 126656,
            "byteOffset" : 379968,
            "target" : 34962
        },
        {
            "buffer" : 0,
            "byteLength" : 38760,
            "byteOffset" : 506624,
            "target" : 34963
        },
        {
            "buffer" : 0,
            "byteLength" : 189984,
            "byteOffset" : 545384,
            "target" : 34962
        },
        {
            "buffer" : 0,
            "byteLength" : 189984,
            "byteOffset" : 735368,
            "target" : 34962
        },
        {
            "buffer" : 0,
            "byteLength" : 126656,
            "byteOffset" : 925352,
            "target" : 34962
        },
        {
            "buffer" : 0,
            "byteLength" : 189984,
            "byteOffset" : 1052008,
            "target" : 34962
        },
        {
            "buffer" : 0,
            "byteLength" : 189984,
            "byteOffset" : 1241992,
            "target" : 34962
        },
        {
            "buffer" : 0,
            "byteLength" : 126656,
            "byteOffset" : 1431976,
            "target" : 34962
        },
        {
            "buffer" : 0,
            "byteLength" : 189984,
            "byteOffset" : 1558632,
            "target" : 34962
        },
        {
            "buffer" : 0,
            "byteLength" : 189984,
            "byteOffset" : 1748616,
            "target" : 34962
        },
        {
            "buffer" : 0,
            "byteLength" : 126656,
            "byteOffset" : 1938600,
            "target" : 34962
        }
    ],
    "buffers" : [
        {
            "byteLength" : 2065256,
            "uri" : "data:application/octet-stream;base64,"
        }
    ]
}
