{
  "accessors": [
    {
      "bufferView": 2,
      "componentType": 5126,
      "count": 65532,
      "max": [
        191.7956085205078,
        194.3099365234375,
        94.13257598876953
      ],
      "min": [
        -154.07664489746094,
        -182.8920440673828,
        -2.6859536170959473
      ],
      "type": "VEC3"
    },
    {
      "bufferView": 2,
      "byteOffset": 786384,
      "componentType": 5126,
      "count": 65532,
      "max": [
        1.0,
        1.0,
        1.0
      ],
      "min": [
        -1.0,
        -1.0,
        -1.0
      ],
      "type": "VEC3"
    },
    {
      "bufferView": 1,
      "componentType": 5126,
      "count": 65532,
      "max": [
        0.9826961755752563,
        0.9940610527992249
      ],
      "min": [
        0.014244897291064262,
        0.006056180223822594
      ],
      "type": "VEC2"
    },
    {
      "bufferView": 0,
      "componentType": 5125,
      "count": 333621,
      "type": "SCALAR"
    },
    {
      "bufferView": 2,
      "byteOffset": 1572768,
      "componentType": 5126,
      "count": 19682,
      "max": [
        136.37789916992188,
        138.91159057617188,
        108.94493865966797
      ],
      "min": [
        -129.7897186279297,
        -121.4479751586914,
        -1.0464680194854736
      ],
      "type": "VEC3"
    },
    {
      "bufferView": 2,
      "byteOffset": 1808952,
      "componentType": 5126,
      "count": 19682,
      "max": [
        1.0,
        0.9999994039535522,
        1.0
      ],
      "min": [
        -0.999967634677887,
        -0.9999994039535522,
        -1.0
      ],
      "type": "VEC3"
    },
    {
      "bufferView": 1,
      "byteOffset": 524256,
      "componentType": 5126,
      "count": 19682,
      "max": [
        0.9339368343353271,
        0.9935294985771179
      ],
      "min": [
        0.03994555026292801,
        0.002097643679007888
      ],
      "type": "VEC2"
    },
    {
      "bufferView": 0,
      "byteOffset": 1334484,
      "componentType": 5125,
      "count": 108039,
      "type": "SCALAR"
    }
  ],
  "asset": {
    "extras": {
      "author": "L3X (https://sketchfab.com/L3X)",
      "license": "SKETCHFAB Standard (https://sketchfab.com/licenses)",
      "source": "https://sketchfab.com/3d-models/christmas-pack-908411f3d5ee4aa18b5d68162cbc9fb8",
      "title": "Christmas Pack"
    },
    "generator": "Sketchfab-14.38.0",
    "version": "2.0"
  },
  "bufferViews": [
    {
      "buffer": 0,
      "byteLength": 1766640,
      "name": "floatBufferViews",
      "target": 34963
    },
    {
      "buffer": 0,
      "byteLength": 681712,
      "byteOffset": 1766640,
      "byteStride": 8,
      "name": "floatBufferViews",
      "target": 34962
    },
    {
      "buffer": 0,
      "byteLength": 2045136,
      "byteOffset": 2448352,
      "byteStride": 12,
      "name": "floatBufferViews",
      "target": 34962
    }
  ],
  "buffers": [
    {
      "byteLength": 4493488,
      "uri": "scene.bin"
    }
  ],
  "images": [
    {
      "uri": "textures/Mat_Christmas_Pack_baseColor.jpeg"
    }
  ],
  "materials": [
    {
      "emissiveFactor": [
        0.7467212666216734,
        0.7467212666216734,
        0.7467212666216734
      ],
      "emissiveTexture": {
        "index": 0
      },
      "name": "Mat_Christmas_Pack",
      "pbrMetallicRoughness": {
        "baseColorFactor": [
          0.27531784105211315,
          0.27531784105211315,
          0.27531784105211315,
          1.0
        ],
        "baseColorTexture": {
          "index": 0
        },
        "metallicFactor": 0.0,
        "roughnessFactor": 0.9745377548
      }
    }
  ],
  "meshes": [
    {
      "name": "Christmas_Pack_Mesh_Mat_Christmas_Pack_0",
      "primitives": [
        {
          "attributes": {
            "NORMAL": 1,
            "POSITION": 0,
            "TEXCOORD_0": 2
          },
          "indices": 3,
          "material": 0,
          "mode": 4
        }
      ]
    },
    {
      "name": "Christmas_Pack_Mesh_Mat_Christmas_Pack_0",
      "primitives": [
        {
          "attributes": {
            "NORMAL": 5,
            "POSITION": 4,
            "TEXCOORD_0": 6
          },
          "indices": 7,
          "material": 0,
          "mode": 4
        }
      ]
    }
  ],
  "nodes": [
    {
      "children": [
        1
      ],
      "matrix": [
        1.0,
        0.0,
        0.0,
        0.0,
        0.0,
        2.220446049250313e-16,
        -1.0,
        0.0,
        0.0,
        1.0,
        2.220446049250313e-16,
        0.0,
        0.0,
        0.0,
        0.0,
        1.0
      ],
      "name": "Sketchfab_model"
    },
    {
      "children": [
        2
      ],
      "matrix": [
        1.0,
        0.0,
        0.0,
        0.0,
        0.0,
        0.0,
        1.0,
        0.0,
        0.0,
        -1.0,
        0.0,
        0.0,
        0.0,
        0.0,
        0.0,
        1.0
      ],
      "name": "750e2f79a99741c283846a79af0fe1bb.fbx"
    },
    {
      "children": [
        3
      ],
      "name": "RootNode"
    },
    {
      "children": [
        4
      ],
      "matrix": [
        1.0,
        0.0,
        0.0,
        0.0,
        0.0,
        2.220446049250313e-16,
        -1.0,
        0.0,
        0.0,
        1.0,
        2.220446049250313e-16,
        0.0,
        0.0,
        0.0,
        0.0,
        1.0
      ],
      "name": "Christmas_Pack_Mesh"
    },
    {
      "children": [
        5,
        6
      ],
      "matrix": [
        1.0,
        0.0,
        -0.0,
        0.0,
        0.0,
        1.0,
        0.0,
        0.0,
        0.0,
        0.0,
        1.0,
        0.0,
        0.0,
        0.0,
        0.39331483840942383,
        1.0
      ],
      "name": "Object_4"
    },
    {
      "mesh": 0,
      "name": "Christmas_Pack_Mesh_Mat_Christmas_Pack_0"
    },
    {
      "mesh": 1,
      "name": "Christmas_Pack_Mesh_Mat_Christmas_Pack_0"
    }
  ],
  "samplers": [
    {
      "magFilter": 9729,
      "minFilter": 9987,
      "wrapS": 10497,
      "wrapT": 10497
    }
  ],
  "scene": 0,
  "scenes": [
    {
      "name": "Sketchfab_Scene",
      "nodes": [
        0
      ]
    }
  ],
  "textures": [
    {
      "sampler": 0,
      "source": 0
    }
  ]
}
